<svg id="Calque_1" data-name="Calque 1" xmlns="http://www.w3.org/2000/svg" viewBox="0 0 400 400"><defs><style>.cls-1{fill:#888;}</style></defs><title>Facebook_Empty</title><g id="Calque_1-2" data-name="Calque 1-2"><path class="cls-1" d="M213,400H19a36.81,36.81,0,0,0-4.18-2.29A21.35,21.35,0,0,1,2.15,385.32C1.56,383.83.72,382.44,0,381V19C2.7,13.61,4.37,7.46,10.18,4.27,13,2.7,16.06,1.41,19,0H381c.34.35.63.91,1,1,8.4,2.35,14,7.5,16.44,15.91.14.48,1,.73,1.56,1.09V381a34.23,34.23,0,0,1-19,19H277q-.08-75.74-.13-151.48a17.49,17.49,0,0,1,.66-3.2h5.64c13,0,26-.23,39,.12,5,.14,6.64-1.76,7.2-6.4q2.94-24.81,6.46-49.55c.65-4.55-.89-5.87-5.29-5.82-15.83.17-31.67.08-47.5.05-1.93,0-3.86-.17-5.74-.26,0-16.08-.64-31.58.23-47,.6-10.66,7.56-16.68,18.13-18.17a101.35,101.35,0,0,1,12.43-.94c8.5-.14,17-.1,25.5,0,2.94,0,4.77-.66,4.76-4.11-.08-15.84,0-31.67-.19-47.5,0-1.34-2-3.72-3.22-3.83-20.9-1.94-41.87-4-62.76-.3-32.92,5.9-55.8,30.62-58.3,64-1.33,17.74-1,35.61-1.12,53.43,0,3.74-1.18,4.88-4.88,4.83-13.83-.18-27.67,0-41.5-.14-4.21-.06-6,1.11-5.89,5.63q.31,25.24,0,50.49c-.06,4.54,1.61,5.68,5.84,5.61,13.17-.21,26.33-.08,39.5-.08,6.84,0,6.85,0,6.85,6.73v142C212.67,396,212.89,398,213,400Z"/></g></svg>