<svg id="Calque_1" data-name="Calque 1" xmlns="http://www.w3.org/2000/svg" viewBox="0 0 244.04 243.85"><defs><style>.cls-1{fill:#888;}</style></defs><title>Spotify_Empty</title><path class="cls-1" d="M0,129V114.7c.19-1.71.39-3.43.58-5.14,2.88-25.8,12.47-48.8,29.89-68.13C58.2,10.67,93-3.06,134.23.57,160.1,2.85,183,13,202.42,30.32c25.82,23,39.71,51.88,41.43,86.39A115.24,115.24,0,0,1,229.65,179c-19,34.44-47.89,55.57-86.63,62.94-4.58.87-9.24,1.28-13.87,1.91h-14.3a14.33,14.33,0,0,0-1.84-.39,116,116,0,0,1-53.22-16.78c-31.61-19.37-51-47.31-57.88-83.83C1.05,138.3.62,133.65,0,129ZM42.27,83.57c0,6.32,5.25,10,12.12,8.61,7.47-1.47,14.93-3.05,22.46-4.09a199.22,199.22,0,0,1,43.25-1c15,1.21,29.8,3.72,44,8.57,10.25,3.5,20.21,7.89,30.25,12,5.46,2.23,10.09.51,12.76-5,2.21-4.58.27-9.78-4.6-12.19a222.58,222.58,0,0,0-85.4-22.79,229.46,229.46,0,0,0-66.89,5.85A9.88,9.88,0,0,0,42.27,83.57Zm61.85,31.72a205.88,205.88,0,0,0-46.38,5.6c-5.06,1.19-7.37,4.13-8.28,8.82-1.39,7.14,3.28,11.72,10.36,9.89a170.2,170.2,0,0,1,43.55-5.6,165.85,165.85,0,0,1,73.74,17.13c7.83,3.86,9.19,3.38,13.38-4.31,2.48-4.55,1.17-8.83-3.43-11.19A183.18,183.18,0,0,0,104.12,115.29ZM103,160.23a145.44,145.44,0,0,0-41.75,6.18,5.59,5.59,0,0,0-3.35,2.67,28.88,28.88,0,0,0-2,8.44c-.2,3.47,2.88,6,6.4,5.84a29.52,29.52,0,0,0,3.72-.75c9-1.66,17.84-4,26.87-4.81a125.65,125.65,0,0,1,57.4,8.2c5.68,2.19,11.12,5,16.66,7.57,4.92,2.26,9.34-.4,9.38-5.81a17.3,17.3,0,0,0-.91-6,7.83,7.83,0,0,0-3.09-3.94A144.11,144.11,0,0,0,103,160.23Z" transform="translate(0 0)"/></svg>