<svg id="Calque_1" data-name="Calque 1" xmlns="http://www.w3.org/2000/svg" viewBox="0 0 786.81 826.18"><defs><style>.cls-1{fill:#888;}</style></defs><title>Twitch_Empty</title><path class="cls-1" d="M196.69,826.07V708.19H.15c-.06-1.36-.15-2.4-.15-3.43V145.2a13.21,13.21,0,0,1,.84-4.57Q27,71.57,53.13,2.54C53.92.45,55,0,57,0q31.74.09,63.47,0H781.23a19.53,19.53,0,0,0,2.65,0c2.11-.26,3.21.42,2.87,2.73a10.46,10.46,0,0,0,0,1.77V507.43a8.55,8.55,0,0,1-2.72,6.68q-95.56,95.51-191,191.1a8.92,8.92,0,0,1-6.91,2.92c-49.85-.09-99.7,0-149.55-.12a8.21,8.21,0,0,0-6.44,2.63q-56.44,56.6-113,113.12a7.27,7.27,0,0,1-5.65,2.36q-55.45-.11-110.91,0ZM275.32,668l1,.66a21.74,21.74,0,0,1,1.88-2.6l112.59-112.7a7.88,7.88,0,0,1,6.16-2.53q95,.09,190,.08a6.59,6.59,0,0,0,5.18-2.07Q649,491.79,706,434.9a6.26,6.26,0,0,0,2-4.9V79H157.51V550.86H275.32Z" transform="translate(0 0.05)"/><path class="cls-1" d="M550.74,197v3.31q0,114.58.06,229.16c0,2.74-.76,3.44-3.45,3.42q-36-.15-72,0c-2.68,0-3.46-.66-3.45-3.41Q472,314.76,472,200c0-1,.08-1.91.13-3Z" transform="translate(0 0.05)"/><path class="cls-1" d="M393.2,197V432.68H315V197Z" transform="translate(0 0.05)"/></svg>