<svg id="Calque_1" data-name="Calque 1" xmlns="http://www.w3.org/2000/svg" viewBox="0 0 407.46 332.95"><defs><style>.cls-1{fill:#888;}</style></defs><title>Twitter_Empty</title><g id="Calque_1-2" data-name="Calque 1-2"><path class="cls-1" d="M0,295.65c44.93,3.78,85.51-7.34,122.59-35.28C104,259.51,88.05,254.15,74,243.61a83.22,83.22,0,0,1-29.66-41.42C56.9,203.83,68.89,204,81,200.55c-47.82-11.64-67.54-54.14-65.9-83.1C26.63,123,38.39,127,52.4,127.33,31.18,111.85,18.92,92.06,16.1,67.12,13.91,47.83,18.19,29.67,26.94,15.8,72.22,69,129.56,98.36,199.68,103.3c-.52-5-1.26-9.5-1.45-14.07-1.4-33.92,12.59-59.87,41.31-77.63,30.67-19,73.27-14.21,99.24,10.85,3.27,3.15,6,3.83,10.41,2.75A177.92,177.92,0,0,0,395.45,6.72C395.49,17.05,381.2,36,362,52.3c4.92-.9,9.87-1.62,14.74-2.74,5.18-1.19,10.32-2.61,15.39-4.22,4.9-1.56,9.68-3.48,14.52-5.25l.81.86c-6.69,7.83-13,16-20.17,23.38C381.57,70.26,375,75.4,368.67,80.67a6.45,6.45,0,0,0-2.62,5.73c1.06,58.23-16.35,110.52-51.76,156.58-35.88,46.66-83.16,75.22-141.08,85.75-43.92,8-87,4.67-129-10.81A207.36,207.36,0,0,1,0,295.65Z" transform="translate(0 0.02)"/></g></svg>