<svg id="Calque_1" data-name="Calque 1" xmlns="http://www.w3.org/2000/svg" viewBox="0 0 1456.59 1024.19"><defs><style>.cls-1{fill:#888;}</style></defs><title>Youtube_Empty</title><g id="Calque_1-2" data-name="Calque 1-2"><path class="cls-1" d="M.62,512.07c0-35.42-1.3-70.89.31-106.23C3.3,354.15,7.71,302.56,11.34,250.93a385.2,385.2,0,0,1,29.35-124.1c26-61.5,74.07-95.8,138.44-106.9,31.46-5.43,63.7-7,95.67-8.72,56.91-3,113.87-5.05,170.82-7C479.1,3,512.6,2.62,546.09,2.09Q605.25,1.18,664.41.65C703.62.3,742.83-.1,782,0c37.53.12,75.07.71,112.61,1.4,41.32.75,82.65,1.48,124,2.9,55.06,1.9,110.13,3.71,165.12,7,34.77,2.07,70,3.69,103.94,10.89,68.72,14.59,113.66,57.47,135.93,124.45a468.45,468.45,0,0,1,22.81,117.74c3.14,47.85,7.77,95.67,9,143.57,1.65,63.43,1.29,126.93.61,190.39a1765.08,1765.08,0,0,1-14.27,204.58c-4.8,37.58-15.06,74-32.47,107.89-26.5,51.55-70.23,81.05-126,92-27.58,5.42-56,7.29-84.19,8.77-66.4,3.5-132.86,6-199.31,8.51-31.8,1.2-63.64,1.71-95.47,2.15-62,.84-124,2.06-186,1.92-64.14-.15-128.28-1.48-192.41-2.76-52.24-1-104.49-2.34-156.7-4.33-43.9-1.66-87.84-3.42-131.58-7.18A491,491,0,0,1,157,996.58C95.67,980.72,55,941.77,34.31,881.5a454.7,454.7,0,0,1-24-116.08C6.77,714.74,2.94,664.05.73,613.3-.73,579.62.45,545.82.45,512.07ZM578,701.08l393.5-204L578,291.79Z" transform="translate(0 0.02)"/></g></svg>