<svg id="Calque_1" data-name="Calque 1" xmlns="http://www.w3.org/2000/svg" viewBox="0 0 226.89 231.72"><defs><style>.cls-1{fill:#262626;}.cls-2{fill:#0069b4;}</style></defs><title>Logo</title><path class="cls-1" d="M82.36,79.27c19.68,11.84,38.11,22.91,57.56,34.6L81.81,148.78l10.69-26.1c-15.55.38-30.32-1.58-44.79,2.44-3.41.95-5.67,3.4-6.46,7.46-2.61,13.52,1.12,26.1,5.44,38.48,6.08,17.38,15.41,32.88,32.43,41.38,8.84,4.41,19,6.25,29.13,9.46v9.48c-9.67,1.11-19.08-.69-28.28-3.3-36.22-10.3-60.25-34-72.12-69.21C-6,117.66-2.07,78.08,24.47,42.54,42.28,18.71,66.51,4.83,96.22,1c3-.38,5.93-.67,8.91-.91a22.25,22.25,0,0,1,3.11.19V11.15c-5.77.95-11.72,1.45-17.42,2.94a56.35,56.35,0,0,0-32.2,22.22c-11.18,15.59-17.67,33-18,52.32-.2,11,2.49,14.23,13.35,15.21C66.65,105,79.43,105,93.15,105.59Z"/><path class="cls-2" d="M118.05,11.48V.25a80.07,80.07,0,0,1,38,6.44c38.05,16,60.83,44.94,68.42,85.14,7.09,37.61-1.2,72.17-25.85,101.82-19.89,23.93-45.76,36.88-77.15,38-1,0-2-.09-3.27-.16V220.62c6.78-1.3,13.76-2,20.33-4,20.78-6.44,33.46-21.36,41.38-41,8-19.83,9.47-40.6,9.19-61.67-.27-20.24-2.49-40.13-10.24-59-8.93-21.76-23.71-37.08-47.69-41.71C126.94,12.44,122.64,12.09,118.05,11.48Z"/></svg>