<svg id="Calque_1" data-name="Calque 1" xmlns="http://www.w3.org/2000/svg" viewBox="0 0 831.34 237.97"><defs><style>.cls-1{fill:#262626;}.cls-2{fill:#0069b4;}</style></defs><title>Logo</title><path class="cls-1" d="M82.36,79.27c19.68,11.84,38.11,22.91,57.56,34.6L81.81,148.78l10.69-26.1c-15.55.38-30.32-1.58-44.79,2.44-3.41.95-5.67,3.4-6.46,7.46-2.61,13.52,1.12,26.1,5.44,38.48,6.08,17.38,15.41,32.88,32.43,41.38,8.84,4.41,19,6.25,29.13,9.46v9.48c-9.67,1.11-19.08-.69-28.28-3.3-36.22-10.3-60.25-34-72.12-69.21C-6,117.66-2.07,78.08,24.47,42.54,42.28,18.71,66.51,4.83,96.22,1c3-.38,5.93-.67,8.91-.91a22.25,22.25,0,0,1,3.11.19V11.15c-5.77.95-11.72,1.45-17.42,2.94a56.35,56.35,0,0,0-32.2,22.22c-11.18,15.59-17.67,33-18,52.32-.2,11,2.49,14.23,13.35,15.21C66.65,105,79.43,105,93.15,105.59Z"/><path class="cls-2" d="M238.07,83.05h28.78c0-5.33-.15-10.42,0-15.5.59-16.51,5.17-31.72,15.29-45C300.06-.9,336-6.26,359.54,11c4.77,3.5,8.77,7.64,10.17,13.72a13.67,13.67,0,0,1-5.78,14.74c-4.68,3.27-10.82,3.57-15.25-.39-4.16-3.73-7.57-8.33-11.09-12.73-4.08-5.09-8-10.4-14.54-12.44-13.16-4.09-25.7,3.09-27.18,17-1.81,17-1.94,34.15-2.83,51.82h39.11v11.8H294c-.12,2.29-.3,4-.3,5.8,0,30.17-.12,60.33.08,90.49a125.23,125.23,0,0,0,1.87,20.82c1.89,10.8,6.71,14.71,17.64,15.25,4.63.23,9.28,0,14.37,0,.12,2,.21,3.54.33,5.47H239c-.08-1.62-.16-3.2-.26-5.12,1.78-.11,3.23-.25,4.68-.27,15-.28,22-6.48,22.35-21.43.68-27.3.75-54.62,1-81.94.09-9.32,0-18.65,0-28.64H238.07Z"/><path class="cls-2" d="M432.52,227a17.86,17.86,0,0,1,.43,2.58c0,.81-.14,1.63-.25,2.83H344c-.1-1.52-.2-3.1-.34-5.08,1.74-.1,3.19-.25,4.64-.27,15.19-.29,21.93-6.41,22.45-21.85.7-20.46.79-41,1-61.44.14-14.33,0-28.66,0-43V94.91H343.1V83.09h28.75c0-6-.3-11.52,0-17,1.26-19.34,7.18-36.78,21.65-50.48C412.22-2,443.9-4.07,464.48,11c4.77,3.49,8.78,7.62,10.2,13.68a13.61,13.61,0,0,1-6.1,15c-4.77,3.16-10.67,3.24-15.22-.88-4-3.63-7.31-8.12-10.72-12.39C438.57,21.34,434.7,16,428.13,14c-13.13-4.15-25.73,3-27.24,16.9-1.85,17-2,34.17-2.86,51.84h39.09V94.5H399c-.13,2.28-.32,4-.32,5.77,0,30.33-.12,60.66.08,91a120.45,120.45,0,0,0,1.86,20.32c1.95,11,6.8,14.9,18.06,15.36C423.15,227.12,427.64,227,432.52,227Z"/><path class="cls-1" d="M580.5,138.67H477.76c-1,13.46,1.73,25.8,6.9,37.56,6.51,14.83,16.36,26.56,32.28,32,21.39,7.35,41.83-.29,52.91-19.89,2.19-3.87,4-8,5.95-12,4.4,1.16,5.15,3.51,4.06,7.78-4.69,18.46-14.08,33.74-30,44.41-26.38,17.7-62.11,9.68-81.07-18-12.27-17.93-15.92-37.95-14.3-59.32,1.17-15.52,5.08-30.11,13.69-43.15,12.7-19.22,30.75-28.65,53.75-29.06,19.8-.35,36.16,6.48,47.88,22.75C577.51,112.47,581,124.61,580.5,138.67Zm-34-8.85c-1.65-32.5-18.11-41-34.31-39.83-19.45,1.38-36.5,21.8-34.19,39.83Z"/><path class="cls-2" d="M118.05,11.48V.25a80.07,80.07,0,0,1,38,6.44c38.05,16,60.83,44.94,68.42,85.14,7.09,37.61-1.2,72.17-25.85,101.82-19.89,23.93-45.76,36.88-77.15,38-1,0-2-.09-3.27-.16V220.62c6.78-1.3,13.76-2,20.33-4,20.78-6.44,33.46-21.36,41.38-41,8-19.83,9.47-40.6,9.19-61.67-.27-20.24-2.49-40.13-10.24-59-8.93-21.76-23.71-37.08-47.69-41.71C126.94,12.44,122.64,12.09,118.05,11.48Z"/><path class="cls-1" d="M724.28,175.12l4.07,2.29c-3.81,18.69-11.57,35.16-26.6,47.2-27.11,21.74-63.44,16.15-83.79-12.77-13-18.43-17.17-39.21-15.4-61.48a82.61,82.61,0,0,1,19-47.25c21.13-25.58,59.5-31.87,85.92-14,6.62,4.47,12,10.07,15,17.61,2.36,6,3.17,12-1.44,17.37-4.91,5.72-11.58,5.43-18,4.09-7.61-1.58-11.26-6.83-12.16-15.64a54.39,54.39,0,0,0-1.48-8.81c-3.11-11.46-14.06-15-25.08-13.62-14.85,1.85-24.71,10.64-29.83,24.09-10.74,28.15-7.93,55.29,9.51,80,17.74,25.11,52.87,22.89,68.76-.33C716.77,187.93,720.24,181.7,724.28,175.12Z"/><path class="cls-1" d="M827.33,82.93V93.49H792.78c-.11,2.17-.28,3.91-.28,5.66,0,30.47,0,60.95,0,91.42a75.81,75.81,0,0,0,1.11,12.4c1.26,7.44,5.43,12.16,12,12.79,7.7.73,14.12-2.36,18-9.16,2-3.42,4.18-4.27,7.63-3.09-4.08,18.08-24,35.94-45.11,30.23C774.18,230.48,769,221.5,767,210.16a89.08,89.08,0,0,1-1.08-14.88c-.09-31.81-.05-63.62-.05-95.42v-6H740.41c1.82-2.89,2.47-5.35,4-6C759.65,80.6,770,68.51,777.9,54.08A161.59,161.59,0,0,0,785.7,38c1.3-3.15,2.77-4.77,6.77-3.38V82.93Z"/></svg>